<svg viewBox="0 0 620 170" xmlns="http://www.w3.org/2000/svg" role="img" aria-label="JM projectlab">
  <title>JM projectlab</title>
  <g transform="translate(6,15.0) scale(0.5833333333333334)">
      <circle cx="120.0" cy="120.0" r="116.0" fill="none" stroke="#FFFFFF" stroke-width="3.4"/>
      <circle cx="120.0" cy="120.0" r="108.0" fill="none" stroke="#FFFFFF" stroke-width="1.8"/>
      <path id="jmplarclkwht" d="M 27.0,120.0 A 93.0,93.0 0 0 1 213.0,120.0" fill="none"/>
      <text font-family="-apple-system,'SF Pro Text','Helvetica Neue',Helvetica,Arial,sans-serif" font-size="13" font-weight="500" letter-spacing="3.2" fill="#FFFFFF">
        <textPath href="#jmplarclkwht" startOffset="50%" text-anchor="middle">PROJECTLAB</textPath>
      </text>
      <g opacity="0.32"><line x1="120.0" y1="120.0" x2="197.7" y2="155.0" stroke="#FFFFFF" stroke-width="3.04" stroke-linecap="round"/><line x1="120.0" y1="120.0" x2="186.5" y2="183.5" stroke="#FFFFFF" stroke-width="4.22" stroke-linecap="round"/><line x1="120.0" y1="120.0" x2="141.7" y2="195.1" stroke="#FFFFFF" stroke-width="4.57" stroke-linecap="round"/><line x1="120.0" y1="120.0" x2="103.2" y2="200.1" stroke="#FFFFFF" stroke-width="2.12" stroke-linecap="round"/><line x1="120.0" y1="120.0" x2="65.6" y2="178.2" stroke="#FFFFFF" stroke-width="3.25" stroke-linecap="round"/><line x1="120.0" y1="120.0" x2="38.2" y2="127.9" stroke="#FFFFFF" stroke-width="4.48" stroke-linecap="round"/><circle cx="197.7" cy="155.0" r="11.2" fill="#FFFFFF"/><circle cx="186.5" cy="183.5" r="9.1" fill="#FFFFFF"/><circle cx="141.7" cy="195.1" r="8.1" fill="#FFFFFF"/><circle cx="103.2" cy="200.1" r="12.7" fill="#FFFFFF"/><circle cx="65.6" cy="178.2" r="6.6" fill="#FFFFFF"/><circle cx="38.2" cy="127.9" r="11.3" fill="#FFFFFF"/><circle cx="120.0" cy="120.0" r="38" fill="none" stroke="#FFFFFF" stroke-width="2.6"/><rect x="106.4" y="106.4" width="27.2" height="27.2" rx="3.4" fill="none" stroke="#FFFFFF" stroke-width="2.72"/><rect x="113.2" y="113.2" width="13.6" height="13.6" fill="#FFFFFF"/><line x1="113.2" y1="106.4" x2="113.2" y2="97.9" stroke="#FFFFFF" stroke-width="2.38" stroke-linecap="round"/><line x1="120.0" y1="106.4" x2="120.0" y2="97.9" stroke="#FFFFFF" stroke-width="2.38" stroke-linecap="round"/><line x1="126.8" y1="106.4" x2="126.8" y2="97.9" stroke="#FFFFFF" stroke-width="2.38" stroke-linecap="round"/><line x1="113.2" y1="133.6" x2="113.2" y2="142.1" stroke="#FFFFFF" stroke-width="2.38" stroke-linecap="round"/><line x1="120.0" y1="133.6" x2="120.0" y2="142.1" stroke="#FFFFFF" stroke-width="2.38" stroke-linecap="round"/><line x1="126.8" y1="133.6" x2="126.8" y2="142.1" stroke="#FFFFFF" stroke-width="2.38" stroke-linecap="round"/><line x1="106.4" y1="113.2" x2="97.9" y2="113.2" stroke="#FFFFFF" stroke-width="2.38" stroke-linecap="round"/><line x1="106.4" y1="120.0" x2="97.9" y2="120.0" stroke="#FFFFFF" stroke-width="2.38" stroke-linecap="round"/><line x1="106.4" y1="126.8" x2="97.9" y2="126.8" stroke="#FFFFFF" stroke-width="2.38" stroke-linecap="round"/><line x1="133.6" y1="113.2" x2="142.1" y2="113.2" stroke="#FFFFFF" stroke-width="2.38" stroke-linecap="round"/><line x1="133.6" y1="120.0" x2="142.1" y2="120.0" stroke="#FFFFFF" stroke-width="2.38" stroke-linecap="round"/><line x1="133.6" y1="126.8" x2="142.1" y2="126.8" stroke="#FFFFFF" stroke-width="2.38" stroke-linecap="round"/></g>
      <text x="120" y="163" text-anchor="middle" font-family="-apple-system,'SF Pro Display','Helvetica Neue',Helvetica,Arial,sans-serif" font-weight="600" font-size="124" fill="#FFFFFF">JM</text>
    </g>
  <text x="172" y="105.0" font-family="-apple-system,'SF Pro Display','Helvetica Neue',Helvetica,Arial,sans-serif" font-weight="500" font-size="54" letter-spacing="-1" fill="#FFFFFF">projectlab</text>
</svg>
